<svg xmlns="http://www.w3.org/2000/svg" id="Capa_1" data-name="Capa 1" viewBox="0 0 182.8 57.4"><defs><style>      .cls-1 {        fill: #002d4b;      }      .cls-2 {        fill: #e6d800;      }      .cls-3 {        fill: none;        stroke: #e0df00;        stroke-miterlimit: 10;        stroke-width: .46px;      }      .cls-4 {        fill: #e0df00;      }    </style></defs><g id="Grupo_944" data-name="Grupo 944"><g id="Grupo_941" data-name="Grupo 941"><line id="L&#xED;nea_153" data-name="L&#xED;nea 153" class="cls-3" x1="41.08" y1="40.29" x2="182.34" y2="40.29"></line><path id="Trazado_799" data-name="Trazado 799" class="cls-1" d="m58.11,36.96l-.23-7.48h-7.14l-2.51,7.48h-3.47l9.69-29.8c.14-.36.38-.67.69-.89.33-.27.74-.42,1.16-.42h3.43c.38-.01.75.13,1.02.4.25.24.41.56.44.91l.39,29.8h-3.47Zm-.27-27.13c0-.09,0-.18-.04-.27-.05-.16-.14-.23-.27-.23h-.12c-.14,0-.27.07-.33.2-.05.1-.1.2-.13.31l-5.17,16.17h6.14l-.08-16.18Z"></path><path id="Trazado_800" data-name="Trazado 800" class="cls-1" d="m80.14,15.34l-3.4,21.62h-3.47l.35-2.39c-.75.51-1.48.98-2.2,1.39-.62.36-1.27.68-1.93.97-.56.26-1.16.4-1.77.42-.94.04-1.85-.36-2.45-1.08-.61-.73-.85-1.69-.67-2.62l2.9-18.3h3.48l-2.67,16.75c-.07.42-.09.85-.06,1.28.04.31.13.46.29.46.43-.07.84-.21,1.22-.42.61-.28,1.24-.6,1.91-.97.77-.41,1.62-.86,2.55-1.35l2.47-15.75h3.47-.02Z"></path><path id="Trazado_801" data-name="Trazado 801" class="cls-1" d="m89.6,37.35h-2.39c-.67,0-1.34-.13-1.95-.4-1.14-.52-1.98-1.53-2.28-2.74-.17-.65-.2-1.32-.1-1.98l2.12-13.43h-3.09l.54-3.44h3.09l.88-5.56h3.51l-.89,5.56h4.87l-.54,3.44h-4.86l-2.12,13.43c-.2.69.2,1.42.9,1.62.17.05.35.06.53.04h2.2l-.43,3.47h0Z"></path><path id="Trazado_802" data-name="Trazado 802" class="cls-1" d="m105.85,32.22c-.11.7-.35,1.38-.71,1.98-.36.62-.83,1.18-1.37,1.65-.54.46-1.14.83-1.79,1.1-.66.27-1.36.4-2.07.4h-2.39c-.67,0-1.34-.13-1.95-.4-.56-.26-1.05-.63-1.45-1.1-.39-.48-.68-1.04-.83-1.65-.17-.65-.21-1.32-.1-1.98l1.93-12.12c.1-.71.34-1.39.7-2.01.36-.61.81-1.16,1.35-1.62.54-.46,1.15-.83,1.82-1.1.66-.27,1.37-.41,2.08-.41h2.4c.67-.01,1.34.13,1.95.41.56.26,1.05.63,1.45,1.1.39.47.67,1.03.83,1.62.17.65.2,1.34.1,2.01l-1.94,12.12h0Zm-3.48,0l1.93-12.12c.1-.42,0-.87-.25-1.22-.29-.31-.71-.48-1.14-.44h-2.4c-.47-.01-.93.14-1.29.44-.36.31-.58.75-.64,1.22l-1.93,12.12c-.1.42,0,.87.25,1.22.29.31.71.48,1.14.44h2.39c.43.02.87-.07,1.26-.27.41-.35.66-.85.67-1.39"></path><path id="Trazado_803" data-name="Trazado 803" class="cls-2" d="m3.17,5.08h11.78l-1.53-2.27c-.47-.76-1.24-1.28-2.12-1.44l-9.42.05c-.64,0-.72.66-.18,1.46l1.47,2.2Z"></path><path id="Trazado_804" data-name="Trazado 804" class="cls-2" d="m16.25,7.02H4.47s9.36,13.62,9.87,13.87c-.5.26-9.87,13.88-9.87,13.88h11.78s8.88-13.64,8.66-13.88c.22-.24-8.66-13.87-8.66-13.87"></path><path id="Trazado_805" data-name="Trazado 805" class="cls-2" d="m1.7,38.9c-.54.8-.46,1.45.18,1.46l9.42.05c.88-.15,1.66-.68,2.13-1.44l1.53-2.28H3.17l-1.47,2.2h0Z"></path><path id="Trazado_806" data-name="Trazado 806" class="cls-1" d="m0,21.02c.02,4.21,1.31,8.31,3.71,11.76.81-1.17,2.23-3.22,3.7-5.33-.97-2-1.49-4.2-1.51-6.43H0Z"></path><path id="Trazado_807" data-name="Trazado 807" class="cls-1" d="m20.89,0c-2.26,0-4.5.36-6.64,1.08.23.23.44.49.62.76l2.31,3.43h.02l.5.77.12.18c8.1-1.7,16.04,3.5,17.74,11.6s-3.5,16.04-11.6,17.74c-1.01.21-2.04.32-3.07.32s-2.06-.11-3.07-.32l-.13.19-.5.77h-.01l-2.3,3.43c-.19.27-.4.52-.63.76,10.94,3.67,22.78-2.22,26.46-13.16,3.67-10.94-2.22-22.78-13.16-26.46-2.15-.72-4.39-1.09-6.66-1.09"></path><path id="Trazado_808" data-name="Trazado 808" class="cls-1" d="m6.05,18.81c.21-1.55.67-3.06,1.36-4.47-1.47-2.11-2.9-4.17-3.7-5.34C1.7,11.91.46,15.29.11,18.81h5.94Z"></path><path id="Trazado_809" data-name="Trazado 809" class="cls-1" d="m113.06,19.98c.44-.97.95-1.91,1.52-2.81.35-.51.63-.76.84-.76.25,0,.47.29.65.87.17.55.26,1.13.26,1.71-.02,1.15-.17,2.3-.46,3.42-.3,1.27-.63,2.56-.99,3.88.56-.96,1.06-1.92,1.52-2.89.45-.94.95-1.86,1.52-2.73.25-.46.57-1.03.95-1.71.39-.71.82-1.39,1.29-2.05.45-.64.97-1.23,1.56-1.75.52-.47,1.2-.72,1.9-.72.51-.03,1.02.12,1.44.42.35.28.64.63.84,1.03.21.42.35.87.42,1.33s.11.94.11,1.41c0,1.51-.24,3-.68,4.44-.44,1.4-.72,2.84-.84,4.29l3.8-6.23c.49-.73,1.26-1.23,2.13-1.37.46,0,.9.16,1.25.46.42.38.7.89.8,1.44,0,.86-.06,1.92-.19,3.19s-.19,2.51-.19,3.72c0,.87.07,1.73.23,2.58.1.7.39,1.35.84,1.9,1.12-.15,2.17-.64,3-1.4,1.02-.87,1.93-1.87,2.7-2.96.8-1.13,1.53-2.31,2.17-3.53.55-1.04,1.04-2.1,1.48-3.19.23-.43.66-.71,1.14-.76.34,0,.67.13.91.38.27.29.4.67.38,1.06-.81,2.58-1.99,5.04-3.49,7.29-1.57,2.24-3.43,4.26-5.54,6-.34.27-.71.5-1.1.68-.47.21-.97.31-1.48.3-.86.03-1.71-.24-2.39-.76-.62-.49-1.13-1.11-1.48-1.82-.37-.73-.63-1.51-.8-2.32-.16-.74-.28-1.49-.34-2.24-.7,1.15-1.5,2.23-2.39,3.23-.87.98-2.14,1.53-3.46,1.48-.61.03-1.21-.17-1.67-.57-.41-.38-.71-.87-.87-1.41-.18-.58-.3-1.18-.34-1.78-.05-.63-.08-1.2-.08-1.71s.02-1.01.08-1.52c.05-.51.1-1.01.15-1.52-.46.86-1.01,1.94-1.67,3.23s-1.37,2.54-2.13,3.76c-.68,1.11-1.47,2.16-2.35,3.12-.57.74-1.43,1.2-2.36,1.29-.61,0-1.18-.28-1.56-.76-.48-.69-.71-1.52-.64-2.35.01-1.18.15-2.35.42-3.49.28-1.27.61-2.55.99-3.84.38-1.29.78-2.53,1.21-3.72.43-1.19.77-2.27,1.03-3.23m7.83,1.9s-.07.09-.08.15v.38l.08-.46v-.08h0Z"></path><path id="Trazado_810" data-name="Trazado 810" class="cls-1" d="m153.7,18.92c0,.24-.04.47-.15.68.09,0,.18-.01.27-.04.09-.03.18-.04.26-.04.62-.04,1.22.23,1.6.72.38.57.57,1.25.53,1.94-.15.66-.37,1.49-.65,2.51-.28,1.01-.57,2.06-.87,3.15-.3,1.09-.57,2.17-.8,3.23-.21.92-.33,1.86-.34,2.81,0,.43.05.87.15,1.29.79-.06,1.54-.38,2.13-.91.66-.56,1.3-1.16,1.9-1.78.61-.63,1.17-1.21,1.67-1.75.33-.44.82-.73,1.37-.8.59-.08,1.13.33,1.22.91,0,.1,0,.2,0,.3,0,.35-.12.69-.3.99-.25.26-.67.73-1.25,1.45s-1.25,1.44-2.01,2.2c-.77.77-1.63,1.46-2.54,2.05-.82.57-1.78.88-2.77.91-.64.02-1.27-.21-1.75-.65-.47-.45-.82-1.01-1.02-1.63-.23-.66-.38-1.35-.46-2.05-.07-.66-.11-1.32-.11-1.98-.3.3-.69.66-1.18,1.06-.48.4-1,.81-1.56,1.22-.53.39-1.09.73-1.67,1.03-.44.25-.94.39-1.44.42-1.2.05-2.36-.42-3.19-1.29-.86-.99-1.29-2.27-1.22-3.57,0-2.09.31-4.16.95-6.15.58-1.86,1.41-3.64,2.47-5.28.9-1.42,2.04-2.67,3.38-3.68,1.02-.83,2.28-1.31,3.6-1.36,1.03-.03,2.03.38,2.74,1.14.69.71,1.07,1.67,1.07,2.66v.3h-.03Zm-9.72,11.99c1.02-.56,1.9-1.34,2.58-2.28.67-.92,1.27-1.89,1.82-2.89.56-1.01,1.11-2,1.67-2.96.54-.94,1.23-1.79,2.05-2.51-.53-.16-.88-.67-.84-1.22l-.08-.53-1.75-.61c-.92.62-1.73,1.39-2.39,2.28-.69.93-1.27,1.93-1.71,3-.46,1.09-.8,2.22-1.03,3.38-.22,1.13-.34,2.27-.34,3.42v.91h.02Z"></path><path id="Trazado_811" data-name="Trazado 811" class="cls-1" d="m176.72,16.94c.25-.44.71-.73,1.21-.76.3,0,.59.12.8.34.24.26.36.6.34.95v.3c0,.1-.03.21-.08.3-.98,2.32-2.14,4.57-3.46,6.72-1.29,2.1-2.67,4.19-4.14,6.27.17.47.51.86.95,1.1.39.18.82.27,1.25.27.66,0,1.3-.15,1.9-.42.68-.29,1.33-.65,1.94-1.06.63-.43,1.22-.93,1.75-1.48.49-.5.91-1.06,1.25-1.67.19-.47.63-.8,1.14-.84.81,0,1.22.56,1.22,1.67-.06.52-.26,1.02-.57,1.44-.47.72-1.02,1.38-1.63,1.97-.78.77-1.62,1.48-2.51,2.13-1.01.74-2.11,1.35-3.27,1.83-.4.15-.8.28-1.22.38-.42.1-.86.15-1.29.15-1.41.03-2.8-.39-3.95-1.22-.36.46-.77,1.05-1.25,1.79-.48.73-.96,1.44-1.44,2.13-.43.62-.9,1.22-1.41,1.78-.46.51-.81.76-1.06.76-.36.02-.7-.12-.95-.38-.24-.27-.36-.63-.34-.99,0-.05,0-.11.04-.15.03-.07.04-.15.04-.23.56-1.57,1.16-3.08,1.82-4.52s1.39-2.87,2.2-4.29c-.26-.8-.41-1.63-.45-2.47-.05-.89-.08-1.76-.08-2.62,0-1.77.08-3.53.23-5.28s.23-3.31.23-4.67l-1.52,1.14-1.82,1.37c-.55.42-1.14.8-1.75,1.14-.41.26-.88.41-1.37.46-.33,0-.65-.13-.87-.38-.22-.22-.34-.52-.34-.84-.02-.42.18-.82.53-1.06.75-.54,1.45-1.15,2.09-1.82.68-.71,1.37-1.39,2.05-2.05.66-.64,1.4-1.19,2.2-1.63.78-.43,1.65-.65,2.54-.65.87.26,1.54.95,1.79,1.82.41,1.12.67,2.28.8,3.46.15,1.32.22,2.66.19,3.99-.02,1.37-.04,2.48-.04,3.34,1.9-2.58,3.96-5.04,6.15-7.37l-.68.99c.2-.15.36-.33.49-.53.12-.2.24-.41.34-.61"></path><path id="Trazado_812" data-name="Trazado 812" class="cls-1" d="m9.6,51.68h-3.85l-.69,2.34c-.12.02-.24.03-.37.04s-.24.02-.37.02-.26,0-.39-.02c-.12,0-.23-.02-.35-.04l3.3-10.13c.12-.02.25-.03.39-.04s.29-.02.44-.02c.13,0,.27,0,.41.02.14.02.28.02.41.04l3.28,10.13c-.13.02-.25.03-.38.04-.14,0-.28.02-.41.02s-.25,0-.37-.02c-.12,0-.24-.02-.36-.04l-.7-2.34h0Zm-3.47-1.25h3.09l-1.55-5.17-1.54,5.17Z"></path><path id="Trazado_813" data-name="Trazado 813" class="cls-1" d="m12.26,46.79c.12-.02.23-.03.35-.04.13,0,.24-.02.34-.02s.22,0,.35.02c.12,0,.23.02.35.04v3.96c0,.38.03.75.13,1.12.06.26.2.5.38.7.17.17.39.29.62.35.28.07.56.1.85.1.41,0,.83-.04,1.23-.16v-6.07c.11-.02.23-.03.34-.04.13,0,.24-.02.35-.02s.22,0,.35.02c.12,0,.23.02.35.04v7c-.33.09-.72.18-1.18.27-.47.09-.94.13-1.42.13-.44,0-.87-.04-1.3-.12-.39-.07-.76-.24-1.08-.49-.33-.27-.58-.63-.73-1.03-.2-.56-.29-1.15-.27-1.75v-4.02h-.01Z"></path><path id="Trazado_814" data-name="Trazado 814" class="cls-1" d="m19.86,47.91h-1.1l-.06-.2,2.42-2.7h.11v1.79h1.83c.04.18.06.36.06.53,0,.1,0,.2-.01.3s-.02.19-.04.28h-1.83v3.3c0,.32.01.63.05.94.02.19.08.37.17.54.07.12.19.21.32.25.17.05.34.07.51.06.15,0,.3,0,.45-.03.14-.02.27-.05.38-.08.06.19.1.38.12.58.01.2.02.37.02.52-.19.05-.39.08-.59.1-.22.02-.44.04-.66.04-.57.03-1.13-.14-1.58-.49-.42-.43-.63-1.03-.57-1.64v-4.1h0Z"></path><path id="Trazado_815" data-name="Trazado 815" class="cls-1" d="m26.72,54.19c-.51,0-1.01-.09-1.48-.29-.41-.18-.77-.46-1.06-.8-.29-.35-.5-.76-.63-1.2-.27-.98-.27-2.01,0-2.99.12-.44.34-.85.63-1.2.29-.34.65-.62,1.06-.8.95-.39,2.01-.39,2.96,0,.41.19.77.46,1.06.8.29.35.5.76.63,1.2.27.98.27,2.01,0,2.99-.12.44-.34.85-.63,1.2-.29.34-.65.62-1.06.8-.47.2-.97.3-1.48.29m0-1.11c.57.04,1.12-.23,1.44-.7.34-.59.5-1.27.46-1.96.04-.68-.12-1.36-.46-1.95-.62-.79-1.77-.93-2.56-.31-.11.09-.22.19-.31.31-.34.59-.49,1.27-.46,1.95-.04.68.12,1.36.46,1.96.32.47.86.74,1.43.7"></path><path id="Trazado_816" data-name="Trazado 816" class="cls-1" d="m30.94,52.71c.27.11.55.19.84.25.3.06.6.09.91.09.21,0,.42-.02.62-.07.18-.04.36-.11.51-.21.14-.09.26-.21.35-.34.09-.14.13-.3.13-.46s-.03-.32-.11-.47c-.07-.12-.17-.23-.28-.31-.13-.09-.26-.16-.41-.22s-.32-.12-.5-.18l-.49-.18c-.49-.16-.93-.42-1.31-.76-.28-.31-.43-.72-.41-1.14-.02-.59.23-1.15.68-1.52.58-.41,1.29-.61,2.01-.56.36,0,.72.03,1.08.1.31.06.62.14.92.25-.04.38-.14.74-.29,1.09-.24-.09-.49-.16-.74-.22-.3-.07-.61-.11-.92-.11s-.63.06-.92.18c-.26.11-.42.37-.4.65,0,.14.03.28.1.41.07.11.16.21.27.29.12.08.25.15.39.2.14.06.3.11.47.17l.62.21c.22.07.43.16.64.27.19.1.37.23.52.39s.27.36.35.56c.09.26.14.53.13.8,0,.33-.07.65-.21.95-.14.29-.35.54-.6.73-.28.21-.6.37-.94.47-.39.12-.8.17-1.21.17s-.79-.03-1.18-.09c-.32-.06-.64-.14-.94-.25.02-.19.06-.39.12-.57.06-.19.13-.38.2-.57"></path><path id="Trazado_817" data-name="Trazado 817" class="cls-1" d="m39.04,46.79c.12-.02.23-.03.35-.04.13,0,.24-.02.34-.02s.22,0,.35.02c.12,0,.24.02.35.04v3.96c0,.38.03.75.13,1.12.06.26.2.5.38.7.17.17.39.29.62.35.28.07.56.1.85.1.41,0,.83-.04,1.23-.16v-6.07c.11-.02.23-.03.35-.04.13,0,.24-.02.35-.02s.22,0,.35.02c.12,0,.23.02.35.04v7c-.33.09-.72.18-1.18.27-.47.09-.94.13-1.42.13-.44,0-.87-.04-1.3-.12-.39-.07-.76-.24-1.08-.49-.33-.27-.58-.63-.73-1.03-.2-.56-.29-1.15-.27-1.75v-4.02h-.02Z"></path><path id="Trazado_818" data-name="Trazado 818" class="cls-1" d="m46.24,52.71c.27.11.55.19.84.25.3.06.6.09.91.09.21,0,.42-.02.62-.07.18-.04.36-.11.51-.21.14-.09.26-.21.35-.34.09-.14.14-.3.13-.46,0-.16-.03-.32-.11-.47-.07-.12-.17-.23-.28-.31-.13-.09-.26-.16-.41-.22s-.32-.12-.5-.18l-.49-.18c-.49-.16-.93-.42-1.31-.76-.28-.31-.43-.72-.41-1.14-.02-.59.23-1.15.68-1.52.58-.41,1.29-.61,2.01-.56.36,0,.72.03,1.08.1.31.06.62.14.92.25-.02.19-.05.38-.1.56s-.11.35-.19.52c-.24-.09-.49-.16-.74-.22-.3-.07-.61-.11-.92-.11s-.63.06-.92.18c-.26.11-.42.37-.4.65,0,.14.03.28.1.41.07.11.16.21.27.29.12.08.25.15.39.2.14.06.3.11.47.17l.62.21c.22.07.44.16.64.27.19.1.37.23.52.39s.27.36.35.56c.1.26.14.53.13.8,0,.33-.07.65-.21.95-.14.29-.35.54-.6.73-.28.21-.6.37-.94.47-.39.12-.8.17-1.21.17s-.79-.03-1.18-.09c-.32-.06-.64-.14-.94-.25.02-.19.06-.39.12-.57.06-.19.13-.38.2-.57"></path><path id="Trazado_819" data-name="Trazado 819" class="cls-1" d="m55.75,49.26c.05-.43-.11-.86-.42-1.16-.36-.24-.79-.35-1.23-.32-.31,0-.62.02-.92.08-.28.05-.56.12-.84.2-.19-.34-.28-.73-.27-1.11.34-.11.7-.19,1.06-.24.37-.05.74-.08,1.11-.08.77-.05,1.53.17,2.14.64.53.54.8,1.29.73,2.05v4.52c-.33.08-.73.15-1.2.23-.47.08-.96.12-1.44.12-.42,0-.84-.04-1.25-.13-.34-.07-.66-.21-.94-.41-.26-.19-.46-.43-.6-.72-.15-.33-.22-.69-.21-1.06-.02-.72.32-1.41.91-1.82.29-.21.62-.36.97-.45.38-.1.77-.15,1.15-.15.3,0,.55,0,.74.02s.35.03.49.05v-.26h.02Zm0,1.37c-.14-.02-.32-.04-.54-.06s-.4-.03-.55-.03c-.47-.03-.93.08-1.33.33-.31.23-.48.6-.46.98,0,.23.04.46.15.66.1.15.23.28.39.36.16.09.33.14.51.16.18.02.36.03.54.03.21,0,.44,0,.67-.03.21-.02.41-.06.61-.11v-2.3h.01Z"></path><path id="Trazado_820" data-name="Trazado 820" class="cls-1" d="m63.01,43.69c.1-.02.22-.03.35-.04s.24,0,.34,0,.22,0,.35,0,.24.03.35.04v10.13c-.39.11-.79.2-1.2.26-.49.07-.98.11-1.48.1-.49,0-.97-.06-1.44-.19-.91-.24-1.65-.89-1.99-1.75-.21-.54-.31-1.12-.29-1.71,0-.54.08-1.08.26-1.59.16-.46.41-.88.74-1.23.32-.35.71-.62,1.15-.8.47-.19.98-.29,1.49-.28.25,0,.5.02.74.06.22.03.44.08.65.14v-3.14h-.02Zm0,4.33c-.2-.08-.4-.13-.61-.17-.23-.04-.47-.06-.71-.06-.35,0-.69.06-1,.21-.28.14-.51.33-.7.58-.19.26-.33.55-.41.87-.09.36-.14.72-.13,1.09-.06.7.17,1.39.63,1.92.47.4,1.07.61,1.69.58.23,0,.45,0,.68-.03.19-.02.37-.06.55-.11v-4.88h.01Z"></path><path id="Trazado_821" data-name="Trazado 821" class="cls-1" d="m68.71,54.19c-.51,0-1.01-.09-1.48-.29-.41-.18-.77-.46-1.06-.8-.29-.35-.5-.76-.63-1.2-.27-.98-.27-2.01,0-2.99.12-.44.34-.85.63-1.2.29-.34.65-.62,1.06-.8.95-.39,2.01-.39,2.96,0,.41.19.77.46,1.06.8.29.35.5.76.63,1.2.27.98.27,2.01,0,2.99-.12.44-.34.85-.63,1.2-.29.34-.65.62-1.06.8-.47.2-.97.3-1.48.29m0-1.11c.57.04,1.12-.23,1.44-.7.34-.59.5-1.27.46-1.96.04-.68-.12-1.36-.46-1.95-.32-.47-.87-.74-1.44-.7-.57-.04-1.11.23-1.43.7-.34.59-.5,1.27-.46,1.95-.04.68.12,1.36.46,1.96.32.47.86.74,1.43.7"></path><path id="Trazado_822" data-name="Trazado 822" class="cls-1" d="m72.94,52.71c.27.11.55.19.84.25.3.06.6.09.91.09.21,0,.42-.02.62-.07.18-.04.36-.11.51-.21.14-.09.26-.21.35-.34.09-.14.14-.3.13-.46,0-.16-.03-.32-.11-.47-.07-.12-.17-.23-.28-.31-.13-.09-.26-.16-.41-.22s-.32-.12-.5-.18l-.49-.18c-.49-.16-.93-.42-1.31-.76-.28-.31-.43-.72-.41-1.14-.02-.59.23-1.15.68-1.52.58-.41,1.29-.61,2.01-.56.36,0,.72.03,1.08.1.31.06.62.14.92.25-.02.19-.05.38-.1.56-.05.18-.11.35-.19.52-.24-.09-.49-.16-.74-.22-.3-.07-.61-.11-.92-.11s-.63.06-.92.18c-.26.11-.42.37-.4.65,0,.14.03.28.1.41.07.11.16.21.27.29.12.08.25.15.39.2.15.06.3.11.47.17l.62.21c.22.07.44.16.64.27.19.1.37.23.52.39.15.16.27.36.35.56.2.57.17,1.2-.08,1.75-.14.29-.35.54-.6.73-.28.21-.6.37-.94.47-.39.12-.8.17-1.21.17s-.79-.03-1.18-.09c-.32-.06-.64-.14-.94-.25.02-.19.06-.39.12-.57.06-.19.13-.38.2-.57"></path><path id="Trazado_823" data-name="Trazado 823" class="cls-1" d="m85.75,54.02c-.21.05-.42.09-.63.11-.25.03-.49.04-.74.04-.47,0-.94-.06-1.4-.18-.89-.22-1.61-.85-1.96-1.7-.21-.54-.32-1.12-.3-1.7,0-.55.09-1.09.27-1.6.17-.47.44-.9.78-1.26.35-.36.77-.64,1.23-.82.52-.2,1.07-.3,1.63-.29.45,0,.9.02,1.35.08.38.06.76.14,1.13.24v10.4c-.11.02-.23.03-.35.04-.13,0-.24,0-.35,0s-.22,0-.35,0c-.12,0-.23-.02-.35-.04v-3.34l.04.02Zm0-6.11c-.13-.03-.24-.05-.33-.06-.08,0-.17-.02-.25-.03h-.24c-.08,0-.17-.02-.27-.02-.37,0-.74.06-1.09.21-.3.13-.56.34-.77.59-.21.27-.37.57-.46.9-.11.38-.16.76-.15,1.16,0,.37.05.74.17,1.09.1.28.26.53.47.74.2.19.44.33.71.41.29.09.6.13.9.13.23,0,.47-.02.7-.06.22-.04.42-.08.61-.13,0,0,0-4.93,0-4.93Z"></path><path id="Trazado_824" data-name="Trazado 824" class="cls-1" d="m88.44,46.79c.12-.02.23-.03.35-.04.13,0,.24-.02.34-.02s.22,0,.35.02c.12,0,.24.02.35.04v3.96c0,.38.03.75.13,1.12.07.26.2.5.38.7.17.17.38.29.62.35.28.07.56.1.85.1.41,0,.83-.04,1.23-.16v-6.07c.11-.02.23-.03.35-.04.13,0,.24-.02.35-.02s.22,0,.35.02c.12,0,.23.02.35.04v7c-.33.09-.72.18-1.18.27-.47.09-.94.13-1.41.13-.44,0-.87-.04-1.3-.12-.39-.07-.76-.24-1.08-.49-.33-.27-.58-.63-.73-1.03-.2-.56-.29-1.15-.27-1.75v-4.02h-.03Z"></path><path id="Trazado_825" data-name="Trazado 825" class="cls-1" d="m96.81,50.75c-.04.64.18,1.26.61,1.73.48.4,1.1.59,1.73.55.65,0,1.29-.12,1.9-.35.08.16.14.34.18.51.05.2.07.4.09.6-.33.14-.67.24-1.02.3-.41.07-.82.1-1.23.1-.58,0-1.15-.08-1.69-.27-.89-.32-1.57-1.05-1.83-1.96-.15-.49-.22-.99-.21-1.5,0-.51.07-1.01.21-1.5.12-.44.34-.86.63-1.21s.65-.63,1.06-.82c.48-.21.99-.31,1.51-.3.45,0,.9.08,1.31.25.36.16.68.4.94.7.26.31.46.67.58,1.06.14.43.2.88.2,1.33,0,.13,0,.27-.01.41s-.02.27-.03.37h-4.93Zm3.58-1.06c0-.25-.03-.51-.1-.75-.06-.23-.17-.44-.31-.63-.14-.18-.32-.33-.52-.43-.23-.11-.49-.17-.75-.16-.5-.03-.98.16-1.32.52-.33.41-.53.92-.56,1.45,0,0,3.56,0,3.56,0Z"></path><path id="Trazado_826" data-name="Trazado 826" class="cls-1" d="m109.88,43.69c.1-.02.22-.03.35-.04s.24,0,.34,0,.22,0,.35,0,.24.03.35.04v10.13c-.39.11-.79.2-1.2.26-.49.07-.98.11-1.48.1-.49,0-.97-.06-1.44-.19-.91-.24-1.65-.89-1.99-1.75-.21-.54-.31-1.12-.29-1.71,0-.54.08-1.08.26-1.59.16-.46.41-.88.74-1.23.32-.35.71-.62,1.15-.8.47-.19.98-.29,1.49-.28.25,0,.5.02.74.06.22.03.44.08.66.14v-3.14h-.03Zm0,4.33c-.2-.08-.4-.13-.61-.17-.23-.04-.47-.06-.7-.06-.35,0-.69.06-1,.21-.28.14-.52.33-.7.58-.19.26-.33.55-.41.87-.09.36-.14.72-.13,1.09-.06.7.17,1.39.63,1.92.47.4,1.07.61,1.69.58.23,0,.45,0,.68-.03.19-.02.37-.06.55-.11v-4.88Z"></path><path id="Trazado_827" data-name="Trazado 827" class="cls-1" d="m116.48,49.26c.05-.43-.11-.86-.42-1.16-.36-.24-.79-.35-1.23-.32-.31,0-.62.02-.92.08-.28.05-.56.12-.84.2-.19-.34-.28-.73-.27-1.11.34-.11.7-.19,1.06-.24.37-.05.74-.08,1.11-.08.77-.05,1.53.17,2.14.64.53.54.8,1.29.73,2.05v4.52c-.33.08-.73.15-1.2.23-.47.08-.96.12-1.44.12-.42,0-.84-.04-1.25-.13-.34-.07-.66-.21-.94-.41-.26-.19-.46-.43-.6-.72-.15-.33-.22-.69-.21-1.06-.02-.72.32-1.41.91-1.82.29-.21.62-.36.97-.45.38-.1.77-.15,1.15-.15.3,0,.55,0,.74.02s.36.03.49.05v-.26h.02Zm0,1.37c-.14-.02-.32-.04-.54-.06s-.4-.03-.55-.03c-.47-.03-.93.08-1.33.33-.31.23-.48.6-.46.98-.01.23.04.46.15.66.1.15.23.28.39.36.16.09.33.14.51.16s.36.03.54.03c.22,0,.44,0,.67-.03.21-.02.41-.06.61-.11v-2.3h.01Z"></path><path id="Trazado_828" data-name="Trazado 828" class="cls-1" d="m119.1,46.79c.1-.02.2-.03.3-.04.1,0,.2-.02.3-.02s.19,0,.29.02c.09,0,.19.02.29.04.03.14.06.33.09.57.03.2.04.4.04.6.1-.17.22-.33.36-.48.15-.16.32-.31.5-.43.2-.13.42-.24.65-.31.26-.08.53-.12.8-.12.69-.06,1.36.21,1.83.71.44.61.65,1.35.59,2.1v4.58c-.12.02-.23.03-.35.04-.13,0-.25.02-.35.02s-.22,0-.35-.02c-.12,0-.23-.02-.35-.04v-4.2c.04-.51-.07-1.02-.31-1.47-.22-.32-.6-.5-.99-.47-.26,0-.51.05-.75.14-.24.1-.45.25-.62.44-.19.22-.34.49-.43.77-.12.37-.17.75-.16,1.13v3.66c-.11.02-.23.03-.35.04-.13,0-.24.02-.35.02s-.22,0-.35-.02c-.12,0-.24-.02-.35-.04v-7.22h.02Z"></path><path id="Trazado_829" data-name="Trazado 829" class="cls-1" d="m133.7,52.77c.09.16.15.32.2.49.06.2.09.4.1.6-.61.23-1.25.34-1.9.32-1.01.07-2.01-.3-2.72-1.02-.64-.77-.97-1.75-.91-2.76,0-.51.07-1.01.23-1.49.14-.44.37-.85.67-1.2.31-.34.68-.62,1.11-.8.49-.21,1.01-.31,1.54-.29.35,0,.7.02,1.04.07.29.05.58.12.86.22,0,.19-.02.37-.06.56-.04.19-.1.38-.18.56-.51-.17-1.04-.25-1.58-.24-.63-.04-1.23.22-1.62.72-.38.56-.57,1.23-.54,1.9-.06.71.16,1.42.61,1.98.44.43,1.04.66,1.66.63.26,0,.52-.02.78-.06.25-.04.49-.11.73-.2"></path><path id="Trazado_830" data-name="Trazado 830" class="cls-1" d="m137.49,54.19c-.51,0-1.01-.09-1.48-.29-.41-.18-.77-.46-1.06-.8-.29-.35-.5-.76-.63-1.2-.27-.98-.27-2.01,0-2.99.12-.44.34-.85.63-1.2.29-.34.65-.62,1.06-.8.95-.39,2.01-.39,2.96,0,.41.19.77.46,1.06.8.29.35.5.76.63,1.2.27.98.27,2.01,0,2.99-.12.44-.34.85-.63,1.2-.29.34-.65.62-1.06.8-.47.2-.97.3-1.48.29m0-1.11c.57.04,1.12-.23,1.44-.7.34-.59.51-1.27.47-1.96.04-.68-.12-1.36-.46-1.95-.32-.47-.87-.74-1.44-.7-.57-.04-1.11.23-1.43.7-.34.59-.5,1.27-.46,1.95-.04.68.12,1.36.46,1.96.32.47.86.74,1.43.7"></path><path id="Trazado_831" data-name="Trazado 831" class="cls-1" d="m141.85,46.79c.1-.02.2-.03.3-.04.1,0,.2-.02.3-.02s.19,0,.29.02c.09,0,.19.02.29.04.03.14.06.33.09.57.03.2.04.4.04.6.1-.17.22-.33.36-.48.15-.16.32-.31.5-.43.43-.29.94-.43,1.45-.43.69-.06,1.36.21,1.83.71.44.61.65,1.35.59,2.1v4.58c-.12.02-.23.03-.35.04-.13,0-.25.02-.35.02s-.22,0-.35-.02c-.12,0-.23-.02-.35-.04v-4.2c.04-.51-.07-1.02-.31-1.47-.22-.32-.6-.5-.99-.47-.26,0-.51.05-.75.14-.24.1-.45.25-.62.44-.19.22-.34.49-.43.77-.11.37-.17.75-.16,1.13v3.66c-.11.02-.23.03-.35.04-.13,0-.24.02-.35.02s-.22,0-.35-.02c-.12,0-.24-.02-.35-.04v-7.22h.02Z"></path><path id="Trazado_832" data-name="Trazado 832" class="cls-1" d="m149.64,47.89h-1.18c-.04-.18-.06-.36-.06-.55,0-.18.02-.37.06-.55h1.18v-.51c-.05-.76.24-1.51.8-2.04.62-.5,1.4-.75,2.19-.7.34,0,.68.02,1.02.07.35.06.7.15,1.04.27,0,.21-.03.42-.1.61-.06.18-.14.36-.24.53-.25-.1-.51-.18-.77-.24-.28-.05-.56-.07-.84-.07-.23,0-.45.02-.68.06-.19.04-.38.12-.54.24-.16.13-.28.3-.36.49-.1.26-.14.53-.13.81v.47h4.35v7.23c-.11.02-.23.03-.35.04-.13,0-.24.02-.35.02s-.22,0-.35-.02c-.12,0-.23-.02-.35-.04v-6.13h-2.97v6.13c-.11.02-.23.03-.35.04-.13,0-.24.02-.35.02s-.22,0-.35-.02c-.12,0-.24-.02-.35-.04v-6.13h.03Z"></path><path id="Trazado_833" data-name="Trazado 833" class="cls-1" d="m160.61,49.26c.05-.43-.11-.86-.42-1.16-.36-.24-.79-.35-1.23-.32-.31,0-.62.02-.92.08-.28.05-.56.12-.84.2-.19-.34-.28-.73-.27-1.11.35-.11.7-.19,1.06-.24.37-.05.74-.08,1.11-.08.77-.05,1.53.17,2.14.64.53.54.8,1.29.73,2.05v4.52c-.33.08-.73.15-1.2.23-.47.08-.95.12-1.44.12-.42,0-.84-.04-1.25-.13-.34-.07-.66-.21-.94-.41-.26-.19-.46-.43-.6-.72-.15-.33-.22-.69-.21-1.06-.02-.72.32-1.41.91-1.82.29-.21.62-.36.97-.45.38-.1.77-.15,1.15-.15.3,0,.55,0,.74.02.19,0,.36.03.49.05v-.26h.02Zm0,1.37c-.14-.02-.32-.04-.54-.06s-.4-.03-.55-.03c-.47-.03-.93.08-1.33.33-.31.23-.48.6-.46.98,0,.23.04.46.15.66.1.15.23.28.39.36.16.09.33.14.51.16s.36.03.54.03c.21,0,.44,0,.67-.03.21-.02.41-.06.61-.11v-2.3h.01Z"></path><path id="Trazado_834" data-name="Trazado 834" class="cls-1" d="m163.23,46.79c.1-.02.2-.03.3-.04.1,0,.2,0,.3-.02.1,0,.19,0,.29.02.09,0,.19.02.29.04.03.14.06.33.09.57.03.2.04.4.04.6.22-.36.51-.67.86-.91.2-.13.42-.24.65-.31.26-.08.53-.12.8-.12.69-.06,1.36.21,1.83.71.44.61.65,1.35.59,2.1v4.58c-.12.02-.23.03-.35.04-.13,0-.25.02-.35.02s-.22,0-.35-.02c-.13,0-.24-.02-.35-.04v-4.2c.04-.51-.07-1.02-.31-1.47-.22-.32-.6-.5-.99-.47-.26,0-.51.05-.75.14-.24.1-.45.25-.62.44-.19.22-.34.49-.43.77-.12.37-.17.75-.16,1.13v3.66c-.11.02-.23.03-.35.04-.13,0-.24.02-.35.02s-.22,0-.35-.02c-.12,0-.24-.02-.35-.04v-7.22h.02Z"></path><path id="Trazado_835" data-name="Trazado 835" class="cls-1" d="m169.81,53.82l3.8-5.92h-3.35c-.03-.19-.04-.38-.04-.56s0-.37.04-.55h5.42l.07.18-3.83,5.93h3.59c.03.19.04.38.04.58,0,.18,0,.36-.04.53h-5.64l-.07-.2h.01Z"></path><path id="Trazado_836" data-name="Trazado 836" class="cls-1" d="m180.15,49.26c.05-.43-.11-.86-.42-1.16-.36-.24-.79-.35-1.23-.32-.31,0-.62.02-.92.08-.28.05-.56.12-.84.2-.19-.34-.28-.73-.27-1.11.35-.11.7-.19,1.06-.24.37-.05.74-.08,1.11-.08.77-.05,1.53.17,2.14.64.53.54.8,1.29.73,2.05v4.52c-.33.08-.73.15-1.2.23-.47.08-.96.12-1.44.12-.42,0-.84-.04-1.25-.13-.34-.07-.66-.21-.94-.41-.26-.19-.46-.43-.6-.72-.15-.33-.22-.69-.21-1.06-.02-.72.32-1.41.91-1.82.29-.21.62-.36.97-.45.38-.1.77-.15,1.15-.15.3,0,.55,0,.74.02s.36.03.49.05v-.26h.02Zm0,1.37c-.14-.02-.32-.04-.54-.06s-.4-.03-.55-.03c-.47-.03-.93.08-1.33.33-.31.23-.48.6-.46.98,0,.23.04.46.16.66.1.15.23.28.39.36.16.09.33.14.51.16s.36.03.54.03c.21,0,.44,0,.67-.03.21-.02.41-.06.61-.11v-2.3h0Z"></path></g><path id="Trazado_934" data-name="Trazado 934" class="cls-4" d="m3.17,5.08h11.78l-1.53-2.27c-.47-.76-1.24-1.28-2.12-1.44l-9.42.05c-.64,0-.72.66-.18,1.46l1.47,2.2Z"></path><path id="Trazado_935" data-name="Trazado 935" class="cls-4" d="m16.25,7.02H4.47s9.36,13.62,9.87,13.87c-.5.26-9.87,13.88-9.87,13.88h11.78s8.88-13.64,8.66-13.88c.22-.24-8.66-13.87-8.66-13.87"></path><path id="Trazado_936" data-name="Trazado 936" class="cls-4" d="m1.7,38.9c-.54.8-.46,1.45.18,1.46l9.42.05c.88-.15,1.66-.68,2.13-1.44l1.53-2.28H3.17l-1.47,2.2h0Z"></path><path id="Trazado_937" data-name="Trazado 937" class="cls-1" d="m0,21.02c.02,4.21,1.31,8.31,3.71,11.76.81-1.17,2.23-3.22,3.7-5.33-.97-2-1.49-4.2-1.51-6.43H0Z"></path><path id="Trazado_938" data-name="Trazado 938" class="cls-1" d="m20.89,0c-2.26,0-4.5.36-6.64,1.08.23.23.44.49.62.76l2.31,3.43h.02l.5.77.12.18c8.1-1.7,16.04,3.5,17.74,11.6s-3.5,16.04-11.6,17.74c-1.01.21-2.04.32-3.07.32s-2.06-.11-3.07-.32l-.13.19-.5.77h-.01l-2.3,3.43c-.19.27-.4.52-.63.76,10.94,3.67,22.78-2.22,26.46-13.16,3.67-10.94-2.22-22.78-13.16-26.46-2.15-.72-4.39-1.09-6.66-1.09"></path><path id="Trazado_939" data-name="Trazado 939" class="cls-1" d="m6.05,18.81c.21-1.55.67-3.06,1.36-4.47-1.47-2.11-2.9-4.17-3.7-5.34C1.7,11.91.46,15.29.11,18.81h5.94Z"></path></g></svg>